<?xml version="1.0" encoding="UTF-8"?>
<svg version="1.1" xmlns="http://www.w3.org/2000/svg" width="1024" height="1024">
    <path d="M0 0 C1.09103027 0.22171875 2.18206055 0.4434375 3.30615234 0.671875 C58.36325212 11.99095005 109.11558857 38.29395172 153 73 C154.01835938 73.80308594 155.03671875 74.60617188 156.0859375 75.43359375 C166.88402974 84.11228966 176.87754918 93.69067268 186.66479492 103.47949219 C188.19237416 105.00486713 189.72783582 106.52200672 191.26367188 108.0390625 C197.6283365 114.36777901 203.40829094 120.9674441 209 128 C210.04791001 129.24810728 211.10068882 130.49215702 212.16015625 131.73046875 C221.79198622 143.134908 229.91987824 155.46704124 238 168 C238.42651855 168.65597168 238.85303711 169.31194336 239.29248047 169.98779297 C261.47347985 204.21822615 276.23855644 242.26608492 285 282 C285.16048828 282.72219727 285.32097656 283.44439453 285.48632812 284.18847656 C288.18791056 296.6363508 289.62876663 309.34720733 291 322 C291.09933838 322.88993652 291.19867676 323.77987305 291.30102539 324.69677734 C292.26314227 334.48646701 292.20119392 344.29809266 292.1875 354.125 C292.18623108 355.05984222 292.18496216 355.99468445 292.18365479 356.95785522 C292.08586047 394.82001552 287.45250511 431.82494551 276 468 C275.42741455 469.81685303 275.42741455 469.81685303 274.84326172 471.67041016 C269.39948986 488.69363604 262.92177441 504.98240794 255 521 C254.56075195 521.8962207 254.12150391 522.79244141 253.66894531 523.71582031 C240.54268911 550.28943461 223.79738843 574.94892114 204 597 C203.55043945 597.50595703 203.10087891 598.01191406 202.63769531 598.53320312 C189.81147801 612.92902993 176.325809 627.25917557 161 639 C159.8774625 639.90807447 158.75787672 640.81980501 157.640625 641.734375 C142.75509928 653.89201929 127.3370069 664.83889791 110.68310547 674.45117188 C108.71288497 675.58848569 106.74929147 676.73729981 104.78955078 677.89257812 C96.54173343 682.72541992 88.10256177 686.97248695 79.375 690.875 C78.71380157 691.17237061 78.05260315 691.46974121 77.37136841 691.77612305 C52.01817138 703.13711316 25.94815064 711.32563289 -1.1875 717.1875 C-2.79516235 717.54473145 -2.79516235 717.54473145 -4.43530273 717.90917969 C-25.27793396 722.23137734 -46.40391411 723.50547437 -67.64428711 723.39111328 C-71.19749005 723.37495457 -74.74956414 723.39112794 -78.30273438 723.41015625 C-100.30337732 723.43006796 -121.55087325 720.79579186 -143 716 C-143.87285645 715.80647949 -144.74571289 715.61295898 -145.64501953 715.41357422 C-157.27494557 712.81023576 -168.73266145 709.90094155 -180 706 C-180.94520508 705.67435059 -181.89041016 705.34870117 -182.86425781 705.01318359 C-228.9155402 688.96891109 -270.67465336 665.61082944 -307 633 C-307.5563916 632.50145508 -308.1127832 632.00291016 -308.68603516 631.48925781 C-320.03217146 621.27739856 -331.15959533 610.68548055 -341 599 C-341.86625 598.01128906 -342.7325 597.02257812 -343.625 596.00390625 C-372.96814437 562.45564294 -395.22859404 523.71872152 -410.04907227 481.67602539 C-410.68879938 479.8757561 -411.34323306 478.08065235 -412.01147461 476.29077148 C-419.15069723 457.16339769 -423.2117975 437.25148442 -426.48339844 417.1484375 C-426.82301746 415.07862325 -427.17488538 413.0107749 -427.54003906 410.9453125 C-437.26172754 355.53709912 -430.70838619 296.0820515 -413 243 C-412.68450195 242.04528809 -412.36900391 241.09057617 -412.04394531 240.10693359 C-398.88391808 200.81095592 -377.86375508 163.58978607 -351 132 C-349.43521712 130.06434325 -347.8725969 128.12693553 -346.3125 126.1875 C-342.6583432 121.72796437 -338.84682918 117.43552923 -334.9453125 113.19140625 C-332.97317676 111.0473004 -332.97317676 111.0473004 -331.3671875 108.71484375 C-330.91601562 108.14894531 -330.46484375 107.58304687 -330 107 C-329.34 107 -328.68 107 -328 107 C-327.78601563 106.45988281 -327.57203125 105.91976562 -327.3515625 105.36328125 C-325.51367326 102.14963099 -323.00347641 99.75059745 -320.375 97.1875 C-319.83157959 96.6519751 -319.28815918 96.1164502 -318.72827148 95.56469727 C-314.61932582 91.54228137 -310.39508965 87.70785745 -306 84 C-304.65808594 82.824375 -304.65808594 82.824375 -303.2890625 81.625 C-249.57667624 34.83538892 -181.35392187 4.8469814 -111 -5 C-110.23042969 -5.11714355 -109.46085937 -5.23428711 -108.66796875 -5.35498047 C-72.96007856 -10.69055109 -35.09454211 -7.29974587 0 0 Z " fill="#032233" transform="translate(583,150)"/>
    <path d="M0 0 C1.09103027 0.22171875 2.18206055 0.4434375 3.30615234 0.671875 C58.36325212 11.99095005 109.11558857 38.29395172 153 73 C154.01835938 73.80308594 155.03671875 74.60617188 156.0859375 75.43359375 C166.88402974 84.11228966 176.87754918 93.69067268 186.66479492 103.47949219 C188.19237416 105.00486713 189.72783582 106.52200672 191.26367188 108.0390625 C197.6283365 114.36777901 203.40829094 120.9674441 209 128 C210.04791001 129.24810728 211.10068882 130.49215702 212.16015625 131.73046875 C221.79198622 143.134908 229.91987824 155.46704124 238 168 C238.42651855 168.65597168 238.85303711 169.31194336 239.29248047 169.98779297 C261.47347985 204.21822615 276.23855644 242.26608492 285 282 C285.16048828 282.72219727 285.32097656 283.44439453 285.48632812 284.18847656 C288.18791056 296.6363508 289.62876663 309.34720733 291 322 C291.09933838 322.88993652 291.19867676 323.77987305 291.30102539 324.69677734 C292.26314227 334.48646701 292.20119392 344.29809266 292.1875 354.125 C292.18623108 355.05984222 292.18496216 355.99468445 292.18365479 356.95785522 C292.08586047 394.82001552 287.45250511 431.82494551 276 468 C275.42741455 469.81685303 275.42741455 469.81685303 274.84326172 471.67041016 C269.39948986 488.69363604 262.92177441 504.98240794 255 521 C254.56075195 521.8962207 254.12150391 522.79244141 253.66894531 523.71582031 C240.54268911 550.28943461 223.79738843 574.94892114 204 597 C203.55043945 597.50595703 203.10087891 598.01191406 202.63769531 598.53320312 C189.81147801 612.92902993 176.325809 627.25917557 161 639 C159.8774625 639.90807447 158.75787672 640.81980501 157.640625 641.734375 C142.75509928 653.89201929 127.3370069 664.83889791 110.68310547 674.45117188 C108.71288497 675.58848569 106.74929147 676.73729981 104.78955078 677.89257812 C96.54173343 682.72541992 88.10256177 686.97248695 79.375 690.875 C78.71380157 691.17237061 78.05260315 691.46974121 77.37136841 691.77612305 C52.01817138 703.13711316 25.94815064 711.32563289 -1.1875 717.1875 C-2.79516235 717.54473145 -2.79516235 717.54473145 -4.43530273 717.90917969 C-25.27793396 722.23137734 -46.40391411 723.50547437 -67.64428711 723.39111328 C-71.19749005 723.37495457 -74.74956414 723.39112794 -78.30273438 723.41015625 C-100.30337732 723.43006796 -121.55087325 720.79579186 -143 716 C-143.87285645 715.80647949 -144.74571289 715.61295898 -145.64501953 715.41357422 C-157.27494557 712.81023576 -168.73266145 709.90094155 -180 706 C-180.94520508 705.67435059 -181.89041016 705.34870117 -182.86425781 705.01318359 C-228.9155402 688.96891109 -270.67465336 665.61082944 -307 633 C-307.5563916 632.50145508 -308.1127832 632.00291016 -308.68603516 631.48925781 C-320.03217146 621.27739856 -331.15959533 610.68548055 -341 599 C-341.86625 598.01128906 -342.7325 597.02257812 -343.625 596.00390625 C-372.96814437 562.45564294 -395.22859404 523.71872152 -410.04907227 481.67602539 C-410.68879938 479.8757561 -411.34323306 478.08065235 -412.01147461 476.29077148 C-419.15069723 457.16339769 -423.2117975 437.25148442 -426.48339844 417.1484375 C-426.82301746 415.07862325 -427.17488538 413.0107749 -427.54003906 410.9453125 C-437.26172754 355.53709912 -430.70838619 296.0820515 -413 243 C-412.68450195 242.04528809 -412.36900391 241.09057617 -412.04394531 240.10693359 C-398.88391808 200.81095592 -377.86375508 163.58978607 -351 132 C-349.43521712 130.06434325 -347.8725969 128.12693553 -346.3125 126.1875 C-342.6583432 121.72796437 -338.84682918 117.43552923 -334.9453125 113.19140625 C-332.97317676 111.0473004 -332.97317676 111.0473004 -331.3671875 108.71484375 C-330.91601562 108.14894531 -330.46484375 107.58304687 -330 107 C-329.34 107 -328.68 107 -328 107 C-327.78601563 106.45988281 -327.57203125 105.91976562 -327.3515625 105.36328125 C-325.51367326 102.14963099 -323.00347641 99.75059745 -320.375 97.1875 C-319.83157959 96.6519751 -319.28815918 96.1164502 -318.72827148 95.56469727 C-314.61932582 91.54228137 -310.39508965 87.70785745 -306 84 C-304.65808594 82.824375 -304.65808594 82.824375 -303.2890625 81.625 C-249.57667624 34.83538892 -181.35392187 4.8469814 -111 -5 C-110.23042969 -5.11714355 -109.46085937 -5.23428711 -108.66796875 -5.35498047 C-72.96007856 -10.69055109 -35.09454211 -7.29974587 0 0 Z M-127 36 C-128.92542745 36.36644723 -130.85118846 36.73114799 -132.77734375 37.09375 C-163.46713553 43.17307249 -193.94981268 55.42676801 -221 71 C-221.6820752 71.38897461 -222.36415039 71.77794922 -223.06689453 72.17871094 C-255.48619797 90.72263936 -285.75885061 114.42467421 -310 143 C-310.85722656 143.96808594 -311.71445312 144.93617188 -312.59765625 145.93359375 C-330.05236282 165.73186521 -344.5721467 187.74694052 -357 211 C-357.3398291 211.63437988 -357.6796582 212.26875977 -358.02978516 212.92236328 C-365.83668841 227.6438456 -371.98577783 243.11751304 -377 259 C-377.49823592 260.45893697 -377.99816755 261.91729622 -378.5 263.375 C-385.01388973 283.09177375 -389.44139744 303.40280676 -392 324 C-392.09571289 324.70463379 -392.19142578 325.40926758 -392.29003906 326.13525391 C-393.35802183 335.00640109 -393.24388519 343.95318776 -393.25 352.875 C-393.25067474 353.76127075 -393.25134949 354.6475415 -393.25204468 355.56066895 C-393.20723417 392.80113151 -387.0890904 429.69110454 -375.0625 464.9375 C-374.65555908 466.13431396 -374.24861816 467.33112793 -373.8293457 468.56420898 C-371.36409519 475.62083589 -368.54731114 482.38990758 -365.34594727 489.14379883 C-364.28272111 491.40004458 -363.27944544 493.65187334 -362.33984375 495.9609375 C-355.04652016 513.71682837 -345.01887325 530.31929575 -334 546 C-333.5865332 546.59603027 -333.17306641 547.19206055 -332.74707031 547.80615234 C-327.1721721 555.83854796 -321.31376528 563.52698601 -315 571 C-314.1219454 572.06473287 -313.24436177 573.12985426 -312.3671875 574.1953125 C-301.97096895 586.70216366 -290.64476281 598.82390613 -277.77026367 608.81298828 C-274.94343593 611.04465505 -272.21131284 613.36437011 -269.47265625 615.703125 C-263.35456863 620.84761001 -256.91774467 625.40105453 -250.25 629.8125 C-249.67206696 630.19607666 -249.09413391 630.57965332 -248.49868774 630.97485352 C-210.21887586 656.30269219 -167.06353578 673.45886372 -122 682 C-120.43983154 682.30067383 -120.43983154 682.30067383 -118.84814453 682.60742188 C-70.34999139 691.58175023 -17.32302699 686.53599468 29 670 C30.07233887 669.61763184 31.14467773 669.23526367 32.24951172 668.84130859 C72.45459928 654.40086538 109.7041239 634.36421879 141.3828125 605.37109375 C143.48021245 603.47091201 145.60282005 601.61691609 147.74609375 599.76953125 C159.13034176 589.82563578 169.71870042 578.92366245 179 567 C180.0196604 565.76510066 181.04342598 564.53358448 182.0703125 563.3046875 C189.3490116 554.5666215 195.94753507 545.62644935 202 536 C202.35980957 535.43587402 202.71961914 534.87174805 203.09033203 534.29052734 C224.05673653 501.26676563 237.79870899 464.89565868 247 427 C247.23936279 426.06567139 247.47872559 425.13134277 247.7253418 424.16870117 C249.95602304 415.12294776 251.21146818 406.06002026 252.1875 396.8125 C252.27338379 396.00296875 252.35926758 395.1934375 252.44775391 394.359375 C256.12582321 358.67309803 255.30393932 322.84404196 246.48242188 287.93554688 C246.00781301 286.03134692 245.57384411 284.11716582 245.140625 282.203125 C241.31185534 265.7461326 235.90911862 249.41738043 229 234 C228.4448886 232.68822906 227.89165759 231.37566151 227.33984375 230.0625 C220.18447914 213.24588359 211.63483721 196.8887721 201 182 C199.88431641 180.40091797 199.88431641 180.40091797 198.74609375 178.76953125 C189.44054781 165.49566671 179.81780102 152.54440958 168.63671875 140.78515625 C166.49976482 138.52789973 164.45023795 136.24152086 162.4375 133.875 C156.25595857 126.74361195 149.44664813 120.03384051 142.2578125 113.921875 C140.48196094 112.41025049 138.73360201 110.87868479 136.9921875 109.328125 C128.1302176 101.49679716 118.80184197 94.60662859 109 88 C108.21318848 87.46729492 107.42637695 86.93458984 106.61572266 86.38574219 C97.51651214 80.25647611 88.29095118 74.43464063 78.6875 69.125 C77.93686279 68.70919678 77.18622559 68.29339355 76.4128418 67.86499023 C64.02363136 61.1580992 51.0933564 55.60272498 38 50.4375 C37.28622192 50.15552765 36.57244385 49.8735553 35.83703613 49.58303833 C23.43673009 44.71375496 11.04908996 40.76843109 -2 38 C-2.86947266 37.81147461 -3.73894531 37.62294922 -4.63476562 37.42871094 C-26.27964331 32.80888738 -47.80717107 30.40442683 -69.9375 30.5 C-70.99595123 30.50109772 -72.05440247 30.50219543 -73.14492798 30.50332642 C-91.58658568 30.55786039 -108.95345788 32.21722429 -127 36 Z " fill="#032232" transform="translate(583,150)"/>
    <path d="M0 0 C0.98167648 -0.01252808 1.96335297 -0.02505615 2.97477722 -0.03796387 C35.96385374 -0.37643141 66.84396361 2.31986748 98.73046875 11.2734375 C99.75382324 11.55840088 99.75382324 11.55840088 100.79785156 11.84912109 C133.7469761 21.30173879 165.73171721 37.67903296 193.73046875 57.2734375 C194.37483887 57.71961426 195.01920898 58.16579102 195.68310547 58.62548828 C207.38669677 66.73775765 218.23113259 75.6569284 228.73046875 85.2734375 C229.72230222 86.17226582 230.71450374 87.07068813 231.70703125 87.96875 C240.53700993 95.9790623 249.00736187 104.18010198 256.73046875 113.2734375 C257.57609375 114.253125 258.42171875 115.2328125 259.29296875 116.2421875 C281.95762295 142.60450704 301.87584425 172.86855558 314.73046875 205.2734375 C314.99553223 205.94068848 315.2605957 206.60793945 315.53369141 207.29541016 C318.6294013 215.16810457 321.40686077 223.0846101 323.7734375 231.2109375 C324.48075171 233.47434299 325.29150657 235.7060053 326.15625 237.9140625 C328.14965716 243.16347167 329.43270991 248.56756195 330.73046875 254.0234375 C330.9924707 255.12163818 331.25447266 256.21983887 331.52441406 257.35131836 C333.62005773 266.3608898 335.23659252 275.38028716 336.38232422 284.55761719 C336.64649907 286.61840337 336.93661769 288.675884 337.23876953 290.73144531 C338.74222813 301.47734511 339.12805358 312.05495966 339.10546875 322.8984375 C339.1055896 323.79697449 339.10571045 324.69551147 339.10583496 325.62127686 C339.08029471 339.12226955 338.39567516 352.47245945 336.98046875 365.8984375 C336.9020575 366.66601379 336.82364624 367.43359009 336.74285889 368.22442627 C335.69910679 378.16756655 333.86087929 387.6563012 331.25180054 397.30218506 C330.7320817 399.26733865 330.24922374 401.23789594 329.77856445 403.21533203 C327.38823632 413.23395428 324.43274005 423.00672463 321.16796875 432.7734375 C320.9082428 433.55347137 320.64851685 434.33350525 320.38092041 435.13717651 C315.74427484 448.98273987 310.30160323 462.22229746 303.73046875 475.2734375 C303.32119141 476.10536621 302.91191406 476.93729492 302.49023438 477.79443359 C290.80757942 501.4842617 275.51805304 522.98959413 258.06640625 542.75830078 C256.89395193 544.08802511 255.73311931 545.42797789 254.57421875 546.76953125 C249.65502298 552.37930643 244.42988355 557.67521569 239.16796875 562.9609375 C238.45938721 563.67419189 237.75080566 564.38744629 237.02075195 565.12231445 C232.42037229 569.70883274 227.68315785 574.07028226 222.73046875 578.2734375 C222.18173096 578.73951416 221.63299316 579.20559082 221.06762695 579.68579102 C202.9024969 594.91305901 183.2644014 607.6395879 162.39550781 618.82568359 C160.73811379 619.72604513 159.09169302 620.64731808 157.46386719 621.60009766 C151.1651856 625.28220552 144.55863788 627.74251443 137.73046875 630.2734375 C135.4489119 631.16385706 133.16897585 632.0584401 130.890625 632.95703125 C108.27834853 641.77386048 85.68915158 648.1790198 61.73046875 652.2734375 C60.28003174 652.52335449 60.28003174 652.52335449 58.80029297 652.77832031 C-20.22334938 665.69268988 -105.9363297 641.8293166 -170.49853516 595.54931641 C-171.08296387 595.12827637 -171.66739258 594.70723633 -172.26953125 594.2734375 C-173.31496094 593.52449219 -174.36039063 592.77554688 -175.4375 592.00390625 C-183.40135677 586.16514733 -190.85371723 579.78239563 -198.26953125 573.2734375 C-199.14480469 572.51160156 -200.02007812 571.74976563 -200.921875 570.96484375 C-210.69031489 562.33631905 -219.98556652 553.24922692 -228.0859375 543.0234375 C-230.04433244 540.55705102 -232.05573471 538.14593322 -234.09448242 535.74584961 C-238.85092926 530.13011603 -243.17139755 524.37965672 -247.26953125 518.2734375 C-248.14913538 517.00088424 -249.02939942 515.72878698 -249.91015625 514.45703125 C-266.60266671 490.14736052 -279.55880883 464.11001919 -289.26953125 436.2734375 C-289.57987305 435.40460938 -289.89021484 434.53578125 -290.20996094 433.640625 C-295.4079567 419.03649527 -299.42954393 404.51120925 -302.26953125 389.2734375 C-302.45499512 388.28843262 -302.64045898 387.30342773 -302.83154297 386.28857422 C-312.48397788 334.1654257 -312.61669452 273.66487122 -291.07006836 224.19848633 C-289.66578655 220.82161469 -288.51686134 217.35697597 -287.33203125 213.8984375 C-285.23148057 207.88357415 -283.06947859 202.00399638 -280.26953125 196.2734375 C-279.7178125 195.13132812 -279.16609375 193.98921875 -278.59765625 192.8125 C-260.76604262 156.29533861 -237.2961442 124.56646267 -209.26953125 95.2734375 C-208.7703418 94.75088379 -208.27115234 94.22833008 -207.75683594 93.68994141 C-202.16489534 87.8711975 -196.37248037 82.52437456 -190.0546875 77.50390625 C-187.23101119 75.24258903 -184.50710757 72.88788102 -181.76953125 70.5234375 C-169.26633448 60.09599843 -155.36561091 51.37202742 -141.26953125 43.2734375 C-140.60727539 42.88623535 -139.94501953 42.4990332 -139.26269531 42.10009766 C-97.97545505 18.00456171 -48.22652908 0.56415491 0 0 Z M-52.26953125 41.2734375 C-53.14657715 41.49757324 -54.02362305 41.72170898 -54.92724609 41.95263672 C-94.88192328 52.31992798 -131.21011293 72.51033751 -163.26953125 98.2734375 C-164.27242188 99.07007813 -165.2753125 99.86671875 -166.30859375 100.6875 C-183.52279019 114.72246202 -200.29295243 131.23708341 -213.26953125 149.2734375 C-214.2376324 150.53086393 -215.21054784 151.78459416 -216.1875 153.03515625 C-223.17187095 162.03029726 -229.28899165 171.37767629 -235.04833984 181.19824219 C-236.14355782 183.05936829 -237.25879059 184.90619552 -238.3828125 186.75 C-276.93494697 251.49286311 -283.6288708 329.02689155 -266.26953125 401.2734375 C-260.37899503 423.98460435 -251.46975243 446.6620664 -240.26953125 467.2734375 C-239.49340062 468.73953624 -238.71736334 470.2056844 -237.94140625 471.671875 C-227.75810911 490.67394795 -215.19100055 508.04363174 -200.5234375 523.8359375 C-198.61310344 525.90187936 -196.77623155 528.00294329 -194.95703125 530.1484375 C-186.5544649 539.77679 -177.31737076 548.38951524 -167.26953125 556.2734375 C-166.49609375 556.91410156 -165.72265625 557.55476562 -164.92578125 558.21484375 C-157.40201917 564.42194747 -149.38825692 569.8833405 -141.26953125 575.2734375 C-140.63805176 575.69383301 -140.00657227 576.11422852 -139.35595703 576.54736328 C-106.46615134 598.25273937 -68.95441632 613.19739028 -30.10839844 619.78564453 C-27.49997905 620.23384043 -24.90587015 620.73025525 -22.30859375 621.23828125 C2.9509761 625.85134209 30.53777595 624.44787515 55.73046875 620.2734375 C56.8484082 620.09071289 57.96634766 619.90798828 59.11816406 619.71972656 C85.50967467 615.22896659 111.56730046 607.12884303 135.62060547 595.31005859 C137.69053247 594.29305905 139.77279862 593.30651777 141.859375 592.32421875 C163.6657129 581.91568653 183.3465536 567.8727302 201.73046875 552.2734375 C202.82389884 551.36550001 203.91766943 550.45797249 205.01171875 549.55078125 C217.41053376 539.19015133 228.83575416 528.07836226 238.73046875 515.2734375 C239.72353626 514.02049869 240.71705782 512.76791966 241.7109375 511.515625 C273.21227968 471.48247037 294.39420484 423.58308226 302.73046875 373.2734375 C302.89272949 372.31099121 303.05499023 371.34854492 303.22216797 370.35693359 C310.14256133 327.25623813 306.50222249 281.59391332 292.73046875 240.2734375 C292.1262207 238.45972656 292.1262207 238.45972656 291.50976562 236.609375 C289.10048556 229.63290432 286.30382329 222.96655909 283.13720703 216.30151367 C281.87582354 213.58632113 280.74142579 210.86482827 279.66015625 208.07421875 C271.11038527 186.26922729 257.35766473 166.4201465 242.73046875 148.2734375 C241.99570312 147.34660156 241.2609375 146.41976562 240.50390625 145.46484375 C227.30185313 129.0205903 212.43142073 113.18629909 195.73046875 100.2734375 C194.71339844 99.45101562 193.69632813 98.62859375 192.6484375 97.78125 C170.10702991 79.58283589 145.54053445 64.06344508 118.66699219 53.0703125 C116.81581312 52.30855651 114.9796705 51.51056245 113.14453125 50.7109375 C60.65182618 28.46237376 2.3886638 27.15723138 -52.26953125 41.2734375 Z " fill="#FBFCFC" transform="translate(498.26953125,180.7265625)"/>
    <path d="M0 0 C0.70571136 -0.00139984 1.41142273 -0.00279968 2.13851929 -0.00424194 C18.28055256 0.02204392 32.15694506 3.03497177 46.5625 10.4375 C47.36300781 10.79199219 48.16351562 11.14648438 48.98828125 11.51171875 C72.17878394 22.05285634 89.94653925 44.63168706 98.94140625 68.0234375 C107.90018574 95.85846456 104.32350429 123.77730828 91.9375 149.859375 C78.54059845 174.20566725 55.61296633 189.9301701 29.70703125 198.578125 C20.74831847 201.02646887 12.41524716 201.74974621 3.125 201.6875 C1.97451172 201.69523438 0.82402344 201.70296875 -0.36132812 201.7109375 C-8.97795222 201.69140974 -16.97955277 200.75295984 -25.25 198.3125 C-31.32563422 196.64467884 -35.01957053 197.33802263 -40.46484375 200.4375 C-41.60034668 201.07816406 -42.73584961 201.71882812 -43.90576172 202.37890625 C-45.08399794 203.06340268 -46.26124859 203.74959843 -47.4375 204.4375 C-48.55527832 205.08589844 -49.67305664 205.73429688 -50.82470703 206.40234375 C-54.22746424 208.39612752 -57.61562257 210.41269195 -61 212.4375 C-64.37915343 214.4522551 -67.75878308 216.46591805 -71.14501953 218.46875 C-73.3690435 219.79861277 -75.57822783 221.15356513 -77.77294922 222.53125 C-79.35293701 223.50578125 -79.35293701 223.50578125 -80.96484375 224.5 C-81.8993335 225.08910156 -82.83382324 225.67820312 -83.79663086 226.28515625 C-86.86554639 227.62427813 -88.29450441 227.43313159 -91.4375 226.4375 C-91.79912246 220.27309848 -90.47233354 215.14435854 -88.75 209.25 C-88.19733871 207.29740615 -87.64660026 205.34426717 -87.09765625 203.390625 C-86.81937988 202.40384766 -86.54110352 201.41707031 -86.25439453 200.40039062 C-84.75893434 194.9763306 -83.42515123 189.51270082 -82.0871582 184.0480957 C-81.89855225 183.28070068 -81.70994629 182.51330566 -81.515625 181.72265625 C-81.33837891 180.99449707 -81.16113281 180.26633789 -80.97851562 179.51611328 C-80.46738045 177.55230241 -79.85371338 175.61600992 -79.234375 173.68359375 C-78.02257726 168.74730002 -78.75800535 166.58730603 -81.328125 162.23828125 C-82.1087871 161.07162141 -82.89552913 159.90901279 -83.6875 158.75 C-98.55899129 136.2259604 -105.50593964 109.2122996 -100.31005859 82.37548828 C-94.10757371 54.3212657 -77.67462132 30.21025611 -53.41601562 14.62353516 C-36.55698771 4.51727188 -19.60208969 -0.00371929 0 0 Z " fill="#FDFDFD" transform="translate(552.4375,242.5625)"/>
    <path d="M0 0 C2.41752411 0.02913565 4.83286019 0.02050338 7.25048828 0.00756836 C40.78257344 0.05370251 72.43988157 13.23738308 99.73095703 32.04858398 C131.29706433 53.75575994 168.29722064 63.30089675 206.28564453 56.46655273 C211.3772019 55.4033629 216.33573458 54.05507281 221.28564453 52.46655273 C222.01509277 52.23339355 222.74454102 52.00023437 223.49609375 51.76000977 C239.61615218 46.48404544 253.76851807 38.68284892 267.74145508 29.15576172 C282.05936808 19.45061289 297.27917587 12.42615557 313.59814453 6.77905273 C314.40276123 6.49336426 315.20737793 6.20767578 316.03637695 5.91333008 C330.09030093 1.20432071 344.25375601 -0.09719574 358.97314453 0.02905273 C359.75490051 0.03275879 360.53665649 0.03646484 361.34210205 0.0402832 C388.10006847 0.21999936 413.41651879 6.33621037 436.47045898 20.39697266 C438.27665051 21.51314499 438.27665051 21.51314499 440.29418945 22.32714844 C442.59853574 23.49689538 443.79418167 24.3367955 445.28564453 26.46655273 C446.155866 31.41150388 445.94428548 36.28579742 445.72314453 41.27905273 C445.68800649 42.65332274 445.65607177 44.02767863 445.62744141 45.40209961 C445.54498874 48.75910085 445.42993443 52.11173338 445.28564453 55.46655273 C441.91776164 54.15641538 439.00549578 52.74496429 435.97314453 50.77905273 C429.75112241 46.99811894 423.20834421 44.12786194 416.48925781 41.37084961 C415.02075949 40.76822189 413.55554353 40.15753248 412.09375 39.53881836 C378.41460957 25.39402418 341.83889746 26.2413016 307.99658203 39.34155273 C293.53901176 45.34123607 280.41607792 53.52028452 267.42333984 62.16186523 C242.21427311 78.84675389 214.30701119 86.65552498 184.1105957 86.65185547 C182.1187732 86.65403021 180.12699027 86.67251105 178.13525391 86.69116211 C147.0533531 86.73720937 118.02343001 77.69840341 92.28564453 60.46655273 C57.27861229 37.04079432 18.51880059 23.67498254 -23.8828125 31.84155273 C-41.99615149 35.8396686 -59.85550947 43.27330561 -75.17529297 53.79467773 C-77.71435547 55.46655273 -77.71435547 55.46655273 -79.71435547 55.46655273 C-79.96323828 51.46566581 -80.14371982 47.46781609 -80.26367188 43.4609375 C-80.31369585 42.10141501 -80.38175221 40.7424236 -80.46875 39.38476562 C-81.16880961 28.1714579 -81.16880961 28.1714579 -77.70532227 24.11157227 C-75.12358033 22.27115663 -72.56847111 20.84105676 -69.71435547 19.46655273 C-68.44434604 18.73821924 -67.17475463 18.00915588 -65.90576172 17.27905273 C-64.70201243 16.66324201 -63.49218122 16.05918965 -62.27685547 15.46655273 C-61.60638184 15.13751953 -60.9359082 14.80848633 -60.24511719 14.46948242 C-55.03646489 11.97688121 -49.73658606 9.76645974 -44.33935547 7.71655273 C-43.64656494 7.44713867 -42.95377441 7.17772461 -42.23999023 6.90014648 C-28.43902821 1.86639863 -14.63633187 -0.19160613 0 0 Z " fill="#FBFCFC" transform="translate(330.71435546875,458.533447265625)"/>
    <path d="M0 0 C0.72150238 0.00337372 1.44300476 0.00674744 2.18637085 0.01022339 C13.46118583 0.0863951 23.92398894 0.93327432 34.6875 4.4375 C35.48897461 4.68419434 36.29044922 4.93088867 37.11621094 5.18505859 C64.03491624 13.5375483 93.29948086 30.05230957 108.6875 54.4375 C101.18345345 59.17751686 93.73286371 63.65999288 85.6875 67.4375 C84.45 66.32955078 84.45 66.32955078 83.1875 65.19921875 C55.52855117 40.7565212 26.34879482 27.7077989 -10.94287109 29.17236328 C-33.13756192 30.91873585 -53.33894371 42.11593352 -71.3125 54.4375 C-98.86395427 73.29269409 -125.42038554 86.97026386 -159.96533203 84.08886719 C-167.68803746 82.58600956 -172.1074408 77.21261833 -176.78662109 71.27636719 C-179.15733096 68.41937731 -181.9297499 66.08703471 -184.75 63.6875 C-186.31093766 62.31514724 -187.84740284 60.91173498 -189.3125 59.4375 C-189.3125 58.7775 -189.3125 58.1175 -189.3125 57.4375 C-186.61890184 56.53963395 -185.02950286 56.30502761 -182.26269531 56.27978516 C-181.45044495 56.26952301 -180.63819458 56.25926086 -179.80133057 56.24868774 C-178.92329773 56.24138641 -178.04526489 56.23408508 -177.140625 56.2265625 C-175.25910656 56.1984489 -173.37759628 56.16978427 -171.49609375 56.140625 C-168.54769522 56.09973587 -165.59944174 56.06283454 -162.65087891 56.03613281 C-147.79638625 55.89013034 -133.85171453 54.90081782 -119.75 49.75 C-118.69159912 49.36763184 -118.69159912 49.36763184 -117.61181641 48.97753906 C-106.18070062 44.67254743 -96.22178835 37.80453252 -86.15625 31.01171875 C-71.68668708 21.27798471 -56.79149592 11.68209317 -40.1875 6.0625 C-39.52057129 5.83594727 -38.85364258 5.60939453 -38.16650391 5.37597656 C-25.50700086 1.36426842 -13.18456883 -0.12052476 0 0 Z " fill="#FBFCFC" transform="translate(510.3125,631.5625)"/>
    <path d="M0 0 C-1.30016516 2.89631874 -2.63510423 4.85194306 -4.9765625 6.98828125 C-5.85332642 7.79543579 -5.85332642 7.79543579 -6.74780273 8.61889648 C-7.36727783 9.17778564 -7.98675293 9.7366748 -8.625 10.3125 C-9.25801025 10.89136963 -9.89102051 11.47023926 -10.54321289 12.06665039 C-14.42082606 15.60254487 -18.30927545 19.12917559 -22.30859375 22.52734375 C-24.00306681 23.96329944 -24.00306681 23.96329944 -25.47265625 25.50390625 C-29.28525332 29.23849622 -33.49150429 31.21953998 -38.375 33.25 C-49.31822474 37.80280761 -59.16423991 43.95563367 -69.1796875 50.25 C-79.55727994 56.76374601 -89.8949308 62.81420291 -101 68 C-101.83402344 68.40605469 -102.66804687 68.81210937 -103.52734375 69.23046875 C-124.90380688 79.31954086 -147.20544518 79.43832834 -170.30908203 79.51123047 C-190.34037832 78.90433777 -190.34037832 78.90433777 -209.125 84.75 C-218.21783041 88.70340453 -234.06550885 83.22736096 -243.0078125 79.87109375 C-243.99394531 79.43990234 -243.99394531 79.43990234 -245 79 C-230.11802575 62.59467405 -204.72512171 52.02700871 -183 50 C-179.83838164 49.86121789 -176.67996483 49.83997074 -173.515625 49.82421875 C-171.6731661 49.80098551 -169.83071819 49.77686686 -167.98828125 49.75195312 C-165.13908882 49.71723057 -162.29029379 49.68769261 -159.44091797 49.67407227 C-142.36648407 49.57690555 -125.21682742 48.26139198 -109.5 41 C-108.645271 40.61972656 -107.79054199 40.23945312 -106.90991211 39.84765625 C-95.13891754 34.44493049 -84.24688856 27.46346694 -73.44482422 20.36230469 C-53.62040187 7.35163511 -24.27138812 -8.09046271 0 0 Z " fill="#F9FBFB" transform="translate(705,689)"/>
    <path d="M0 0 C5.28453021 4.91087656 8.92861813 10.65197253 10.6875 17.6875 C10.6875 19.0075 10.6875 20.3275 10.6875 21.6875 C15.78192659 19.77709003 19.64998809 17.40165958 23.890625 13.9921875 C28.73489933 10.47482309 35.00985433 11.0093737 40.6875 11.6875 C49.22955744 14.41015091 55.18214853 18.93128115 59.6875 26.6875 C61.04099024 29.65890408 61.6875 31.39906081 61.6875 34.6875 C63.33733887 34.6560791 63.33733887 34.6560791 65.02050781 34.62402344 C69.10549881 34.55156365 73.19043314 34.50567885 77.27587891 34.46777344 C79.04322872 34.4476715 80.81051213 34.42038528 82.57763672 34.38574219 C85.11963285 34.33715991 87.66074896 34.31451774 90.203125 34.296875 C91.38615204 34.26590729 91.38615204 34.26590729 92.59307861 34.23431396 C96.15994701 34.23285862 98.27467674 34.39462616 101.22167969 36.48535156 C102.6875 38.6875 102.6875 38.6875 102.625 42.3125 C101.6875 45.6875 101.6875 45.6875 98.6875 47.6875 C95.72587299 47.93359566 95.72587299 47.93359566 92.0247345 47.92800903 C91.34430153 47.92971788 90.66386856 47.93142673 89.96281642 47.93318737 C87.67798538 47.93648718 85.39344665 47.92547068 83.10864258 47.91455078 C81.47275296 47.91398677 79.83686283 47.91430302 78.20097351 47.91543579 C73.7549678 47.91601071 69.30906954 47.90423392 64.86308885 47.89028788 C60.21860181 47.87780367 55.57411243 47.87661184 50.92961121 47.87423706 C42.13236103 47.86801549 33.33516042 47.85159552 24.5379321 47.83153808 C14.52354974 47.80920013 4.50916503 47.79819095 -5.50523603 47.78814721 C-26.10768505 47.76722988 -46.7100894 47.73204075 -67.3125 47.6875 C-66.35598521 45.13001411 -65.39886781 42.57275644 -64.44140625 40.015625 C-64.17251587 39.29648926 -63.90362549 38.57735352 -63.62658691 37.83642578 C-61.90530107 33.24107838 -60.15893628 28.65934424 -58.30078125 24.1171875 C-57.56904532 22.31821617 -56.8618069 20.5092375 -56.16796875 18.6953125 C-51.54082894 6.91446764 -44.94455211 -2.18474713 -33.203125 -7.5625 C-21.35157319 -12.26394204 -9.34863244 -7.65047262 0 0 Z " fill="#FCFDFD" transform="translate(331.3125,380.3125)"/>
    <path d="M0 0 C1.90845703 0.41765625 1.90845703 0.41765625 3.85546875 0.84375 C18.45724607 4.35422911 31.4640286 11.35515051 44.28808594 18.99365234 C45.77906942 19.87012609 47.29772368 20.69918908 48.8203125 21.51953125 C51.04958591 22.86719305 52.52613219 23.85349454 54 26 C54.58350203 29.85111338 53.83713119 33.22825893 53 37 C52.62101562 38.89298828 52.62101562 38.89298828 52.234375 40.82421875 C51.53237148 44.22755932 50.78568032 47.61515084 50 51 C45.22279944 49.60907728 41.2335536 47.48165325 37 44.9375 C22.67293004 36.64708815 7.43579708 30.32425413 -9 28 C-9.92337158 27.82944092 -10.84674316 27.65888184 -11.7980957 27.4831543 C-17.40268711 26.63744432 -23.02978116 26.81545134 -28.6875 26.8125 C-30.5118457 26.79413086 -30.5118457 26.79413086 -32.37304688 26.77539062 C-42.99441685 26.75828697 -52.63822757 28.22002674 -62.6875 31.625 C-63.44933594 31.88152344 -64.21117187 32.13804687 -64.99609375 32.40234375 C-79.61458548 37.50913474 -93.44347883 45.18771565 -105.578125 54.77734375 C-108.89053151 56.44957478 -110.47155698 56.05631376 -114 55 C-117.18359375 53.29296875 -117.18359375 53.29296875 -120.4375 51.1875 C-121.57502162 50.46145685 -122.71303869 49.73618932 -123.8515625 49.01171875 C-124.89054688 48.34785156 -125.92953125 47.68398438 -127 47 C-129.31594788 45.63079954 -131.65067298 44.31125229 -134 43 C-134 42.34 -134 41.68 -134 41 C-132.05078125 39.58984375 -132.05078125 39.58984375 -129.3125 37.9375 C-125.02270149 35.29130245 -120.86453569 32.53627618 -116.75 29.625 C-109.72040731 24.70123928 -102.43798207 20.2763592 -95 16 C-94.39961914 15.65050293 -93.79923828 15.30100586 -93.18066406 14.94091797 C-64.64099656 -1.54573949 -32.28568649 -7.46973749 0 0 Z " fill="#FAFBFC" transform="translate(719,520)"/>
    <path d="M0 0 C0.91523438 0.64453125 1.83046875 1.2890625 2.7734375 1.953125 C4.55918023 3.24387237 6.28992198 4.61056161 8 6 C8 6.66 8 7.32 8 8 C6.91460937 8.60328125 5.82921875 9.2065625 4.7109375 9.828125 C3.26555301 10.63528777 1.82024454 11.44258668 0.375 12.25 C-0.33785156 12.64574219 -1.05070313 13.04148437 -1.78515625 13.44921875 C-2.48769531 13.84238281 -3.19023437 14.23554687 -3.9140625 14.640625 C-4.61047852 15.02927734 -5.30689453 15.41792969 -6.02441406 15.81835938 C-7.8622132 16.91758674 -9.51026876 18.12540107 -11.2109375 19.421875 C-14 21 -14 21 -16.46875 20.53125 C-18.94650125 19.03236344 -21.34639185 17.4567926 -23.70483398 15.77612305 C-50.1985364 -3.05735751 -82.77235221 -12.52164756 -115.23828125 -7.49902344 C-121.6588527 -6.15203585 -127.82327416 -4.18921928 -134 -2 C-135.0219043 -1.66355469 -135.0219043 -1.66355469 -136.06445312 -1.3203125 C-148.00605538 2.61567848 -158.42204665 9.33807124 -169 16 C-171.88417628 13.11582372 -172.24422355 9.67160569 -173.125 5.8125 C-173.30675781 5.06935547 -173.48851562 4.32621094 -173.67578125 3.56054688 C-175.79576885 -5.53308416 -175.79576885 -5.53308416 -175 -10 C-172.82072841 -12.34523211 -170.25427195 -13.83921053 -167.5 -15.4375 C-166.72970459 -15.90631592 -165.95940918 -16.37513184 -165.16577148 -16.8581543 C-162.79715 -18.27719657 -160.40691815 -19.64707867 -158 -21 C-157.31180176 -21.38897461 -156.62360352 -21.77794922 -155.91455078 -22.17871094 C-100.91530418 -52.69301702 -47.77743385 -33.91382297 0 0 Z " fill="#FAFBFC" transform="translate(429,555)"/>
    <path d="M0 0 C2.73843554 -0.00435363 5.47522889 -0.04072693 8.21337891 -0.07861328 C20.02186793 -0.15472197 30.76978047 1.18148815 42.13916016 4.37060547 C43.15139648 4.65307129 44.16363281 4.93553711 45.20654297 5.2265625 C47.64994721 5.96159631 50.04991498 6.76000587 52.45166016 7.62060547 C53.27633789 7.91362549 54.10101562 8.20664551 54.95068359 8.50854492 C62.07010078 11.1474478 69.40165577 14.29270468 75.13916016 19.37060547 C75.13916016 25.07778352 72.32121859 27.14262448 68.57666016 31.18310547 C67.96757813 31.88886719 67.35849609 32.59462891 66.73095703 33.32177734 C64.95402348 35.25289984 63.30883194 36.89326114 61.13916016 38.37060547 C56.14357555 38.5087577 51.86694503 36.69675907 47.20166016 34.99560547 C14.37288511 23.53447645 -23.33724568 26.31278645 -54.86083984 40.37060547 C-55.84052734 40.79857422 -56.82021484 41.22654297 -57.82958984 41.66748047 C-68.06445714 46.44750091 -77.89279329 52.96606973 -86.81933594 59.88964844 C-91.40429546 63.42508302 -91.40429546 63.42508302 -93.84545898 63.13378906 C-97.30365068 61.82424245 -100.11213019 59.68828641 -103.11083984 57.55810547 C-103.76052734 57.11917969 -104.41021484 56.68025391 -105.07958984 56.22802734 C-106.93896484 54.91357422 -106.93896484 54.91357422 -109.86083984 52.37060547 C-109.86083984 48.37060547 -109.86083984 48.37060547 -108.71630859 46.76513672 C-103.33734883 41.66331305 -97.66846727 36.97613666 -91.86083984 32.37060547 C-91.34183105 31.95343262 -90.82282227 31.53625977 -90.28808594 31.10644531 C-75.10620777 18.92117301 -58.81039123 10.45848634 -40.11083984 5.05810547 C-39.27238525 4.81568115 -38.43393066 4.57325684 -37.57006836 4.32348633 C-25.01307863 0.86037499 -12.96389852 -0.00229734 0 0 Z " fill="#FBFCFC" transform="translate(507.86083984375,574.62939453125)"/>
    <path d="M0 0 C0.70264984 -0.00168182 1.40529968 -0.00336365 2.12924194 -0.00509644 C26.65481087 0.05574725 48.92158127 9.06655754 68.625 23.5 C67.63863654 27.7863382 65.98363318 31.65787742 64.25 35.6875 C63.94578125 36.42419922 63.6415625 37.16089844 63.328125 37.91992188 C62.51082069 39.81823339 61.57492031 41.66445529 60.625 43.5 C57.625 44.5 57.625 44.5 54.31640625 43.05859375 C52.93797697 42.3557187 51.56183083 41.64835538 50.1875 40.9375 C23.31295883 27.69969914 -4.98765902 24.67949506 -33.45947266 34.19677734 C-50.18212027 40.25707513 -66.21315286 51.59166211 -79.375 63.5 C-83.51980451 62.03172977 -86.8729283 59.97259023 -90.5 57.5 C-92.05074219 56.448125 -92.05074219 56.448125 -93.6328125 55.375 C-94.53773438 54.75625 -95.44265625 54.1375 -96.375 53.5 C-97.365 52.84 -98.355 52.18 -99.375 51.5 C-90.46154644 30.68613769 -56.46599112 13.93349921 -36.6484375 5.96875 C-24.47677275 1.40769044 -12.96783289 0.02428684 0 0 Z " fill="#FAFCFC" transform="translate(691.375,575.5)"/>
    <path d="M0 0 C0.66902344 0.54914062 1.33804688 1.09828125 2.02734375 1.6640625 C2.02734375 2.3240625 2.02734375 2.9840625 2.02734375 3.6640625 C1.14103271 3.67286186 1.14103271 3.67286186 0.23681641 3.68183899 C-5.99443375 3.74649882 -12.22520146 3.83109012 -18.45605469 3.92651367 C-20.77174459 3.95947094 -23.08750919 3.98759044 -25.40332031 4.01049805 C-56.50667044 4.32637044 -79.72496613 12.19730375 -105.96044922 28.72436523 C-138.68116643 49.20983521 -138.68116643 49.20983521 -151.97265625 47.6640625 C-154.75025228 46.85561459 -157.30115792 45.7176839 -159.91015625 44.4765625 C-160.60238281 44.16066162 -161.29460937 43.84476074 -162.0078125 43.51928711 C-167.13330148 41.14910839 -172.13424311 38.58055042 -176.97265625 35.6640625 C-176.97265625 35.0040625 -176.97265625 34.3440625 -176.97265625 33.6640625 C-175.87147461 33.31794922 -175.87147461 33.31794922 -174.74804688 32.96484375 C-160.58867068 28.47852919 -146.93666492 23.96772935 -133.97265625 16.6640625 C-133.01875 16.1484375 -132.06484375 15.6328125 -131.08203125 15.1015625 C-125.32954908 11.88788531 -119.9101475 8.28688864 -114.46313477 4.5859375 C-76.42426934 -21.22288202 -39.42055197 -26.56257327 0 0 Z " fill="#FAFBFC" transform="translate(563.97265625,707.3359375)"/>
    <path d="M0 0 C1.79706795 1.58751193 3.37900178 3.22595956 5 5 C4.43152344 5.556875 3.86304688 6.11375 3.27734375 6.6875 C-1.70853286 11.61511094 -6.46795054 16.65189019 -11 22 C-11.55945313 21.82984375 -12.11890625 21.6596875 -12.6953125 21.484375 C-15.46122918 20.64837446 -18.23046521 19.8239366 -21 19 C-22.7325 18.47792969 -22.7325 18.47792969 -24.5 17.9453125 C-25.69625 17.59210937 -26.8925 17.23890625 -28.125 16.875 C-29.24132812 16.54242187 -30.35765625 16.20984375 -31.5078125 15.8671875 C-57.05013537 9.52446303 -83.44013178 16.02338678 -106.14453125 28.1171875 C-108 29 -108 29 -110 29 C-111.50626117 25.87797994 -113.00393243 22.75191601 -114.5 19.625 C-114.92925781 18.73554687 -115.35851562 17.84609375 -115.80078125 16.9296875 C-116.40986328 15.65351562 -116.40986328 15.65351562 -117.03125 14.3515625 C-117.40830078 13.56604004 -117.78535156 12.78051758 -118.17382812 11.97119141 C-119 10 -119 10 -119 8 C-116.77719694 6.4816919 -114.57259993 5.10053745 -112.25 3.75 C-111.56623291 3.34813477 -110.88246582 2.94626953 -110.17797852 2.53222656 C-76.98240399 -16.78578047 -33.33634009 -23.27454536 0 0 Z " fill="#FBFCFC" transform="translate(385,590)"/>
    <path d="M0 0 C0.99 0.99 1.98 1.98 3 3 C-0.63 9.27 -4.26 15.54 -8 22 C-12.4924619 21.25125635 -15.95504527 20.34831824 -20.1875 18.9375 C-27.67813708 16.71957992 -35.10487079 16.62132767 -42.875 16.625 C-44.60399536 16.62294556 -44.60399536 16.62294556 -46.36791992 16.62084961 C-56.32384509 16.74835115 -64.81287167 18.76467183 -74.1875 21.9375 C-74.95513672 22.18951172 -75.72277344 22.44152344 -76.51367188 22.70117188 C-79.95060746 23.85270728 -83.11553585 25.0581034 -86.36328125 26.69140625 C-89 28 -89 28 -92 28 C-94.19140625 25.6640625 -94.19140625 25.6640625 -96.5625 22.625 C-99.63191205 18.67969922 -99.63191205 18.67969922 -103 15 C-102.78420213 12.5477515 -102.33753985 11.34512501 -100.609375 9.578125 C-69.71437046 -12.48973539 -33.97511584 -20.91767562 0 0 Z " fill="#F9FAFB" transform="translate(735,644)"/>
    <path d="M0 0 C0.82701416 0.42796875 1.65402832 0.8559375 2.50610352 1.296875 C3.27494873 1.70808594 4.04379395 2.11929688 4.8359375 2.54296875 C5.51962402 2.90801514 6.20331055 3.27306152 6.90771484 3.64916992 C8.625 4.8125 8.625 4.8125 10.625 7.8125 C8.81686125 8.61407758 7.00319627 9.40319175 5.1875 10.1875 C3.67349609 10.84878906 3.67349609 10.84878906 2.12890625 11.5234375 C-5.86010985 14.46254041 -13.34118466 15.09425226 -21.8125 15.0859375 C-24.02995282 15.1062418 -26.2474007 15.12709285 -28.46484375 15.1484375 C-31.90905963 15.17089447 -35.35307787 15.18746247 -38.79736328 15.19335938 C-52.53298125 15.23288065 -65.17891001 15.79899561 -78.375 19.8125 C-80.16746661 17.3755847 -81.95900284 14.93799489 -83.75 12.5 C-84.25789063 11.80970703 -84.76578125 11.11941406 -85.2890625 10.40820312 C-85.77890625 9.74111328 -86.26875 9.07402344 -86.7734375 8.38671875 C-87.22380371 7.77401123 -87.67416992 7.16130371 -88.13818359 6.5300293 C-91.375 2.03516088 -91.375 2.03516088 -91.375 -1.1875 C-59.76214639 -16.9496511 -31.14830748 -16.18614823 0 0 Z " fill="#FAFBFB" transform="translate(379.375,645.1875)"/>
    <path d="M0 0 C5.64006554 4.54887667 8.22629 11.28532179 10.875 17.8125 C11.47828125 19.24239258 11.47828125 19.24239258 12.09375 20.70117188 C15 27.67518335 15 27.67518335 15 30 C1.88306262 30.04628303 -11.23385542 30.08184867 -24.35085773 30.10362434 C-30.44120983 30.11407407 -36.53150617 30.12825498 -42.62182617 30.15087891 C-48.49621824 30.17256485 -54.37055658 30.18455966 -60.24498558 30.18975449 C-62.48933953 30.19345789 -64.73369046 30.20068942 -66.97802162 30.21146011 C-70.1147262 30.22591849 -73.25120707 30.22798031 -76.38793945 30.22705078 C-77.7883976 30.23783661 -77.7883976 30.23783661 -79.21714783 30.24884033 C-80.07110138 30.246091 -80.92505493 30.24334167 -81.80488586 30.24050903 C-82.54692922 30.24235262 -83.28897257 30.24419621 -84.05350208 30.24609566 C-86 30 -86 30 -89 28 C-89.66573968 21.00973332 -89.66573968 21.00973332 -87.94067383 18.39331055 C-85.00265834 16.28395662 -82.02659704 16.65740957 -78.55078125 16.734375 C-77.04752352 16.73160156 -75.54426759 16.72765739 -74.04101562 16.72265625 C-71.68181143 16.73097451 -69.32396506 16.74980206 -66.96508789 16.79052734 C-56.32460534 17.28784212 -56.32460534 17.28784212 -47.26953125 12.49609375 C-46.40606079 11.54790771 -46.40606079 11.54790771 -45.52514648 10.58056641 C-44 9 -44 9 -41.0234375 8.17578125 C-35.15570874 8.4786876 -31.39900305 8.94828666 -27 13 C-26.505 14.485 -26.505 14.485 -26 16 C-23.36 15.67 -20.72 15.34 -18 15 C-17.86464844 14.41992188 -17.72929688 13.83984375 -17.58984375 13.2421875 C-16.12914569 7.94169036 -14.41345914 4.39096298 -9.9609375 1.046875 C-6.47764699 -0.81273029 -3.77883746 -1.11702344 0 0 Z " fill="#FAFCFC" transform="translate(748,398)"/>
    <path d="M0 0 C0.93549683 -0.00428513 1.87099365 -0.00857025 2.83483887 -0.01298523 C4.80834139 -0.01871593 6.78186503 -0.01923809 8.75537109 -0.01489258 C11.77087437 -0.01172963 14.78539894 -0.03521786 17.80078125 -0.06054688 C19.72135293 -0.06281973 21.64192725 -0.06352343 23.5625 -0.0625 C24.91112122 -0.07631462 24.91112122 -0.07631462 26.2869873 -0.09040833 C31.06387636 -0.05517019 34.4662445 0.08032822 38.28125 3.30078125 C39.40625 6.17578125 39.40625 6.17578125 39.28125 9.30078125 C37.64194038 11.93715439 36.94786212 12.88163268 34.28125 14.30078125 C29.74348073 15.01151499 25.25092881 14.88098536 20.66796875 14.7890625 C19.32991357 14.77972912 17.99184123 14.77261548 16.65376282 14.7676239 C13.14342514 14.74859444 9.63413302 14.69953178 6.12420654 14.644104 C2.53802635 14.59282208 -1.04832392 14.57009099 -4.63476562 14.54492188 C-11.6631881 14.49140674 -18.69091876 14.40614496 -25.71875 14.30078125 C-24.08526558 10.81158203 -22.30888268 8.74180611 -19.40625 6.17578125 C-18.64699219 5.49257813 -17.88773437 4.809375 -17.10546875 4.10546875 C-11.64038351 -0.02688703 -6.60705534 -0.00669764 0 0 Z " fill="#EEF1F2" transform="translate(351.71875,310.69921875)"/>
    <path d="M0 0 C4.85901474 2.29698879 7.66907123 5.15884024 10 10 C10.83422627 14.35092148 11.02517538 18.19767554 8.7890625 22.12890625 C5.56338694 26.05047629 2.57223274 28.59033353 -2.55078125 29.40625 C-7.55123016 29.5759965 -11.0794266 29.56757469 -15.0625 26.3125 C-18.85419678 22.42102173 -19.85832253 19.48761339 -20.375 14.0625 C-20.2214332 8.62623516 -17.39148938 5.6023211 -13.9375 1.625 C-9.39025114 -0.89049937 -5.07641098 -0.73160041 0 0 Z " fill="#072434" transform="translate(611,327)"/>
    <path d="M0 0 C4.85857844 2.29678253 7.63468979 5.17840611 10 10 C10.84473563 14.80120151 10.50527468 18.05914369 8.1875 22.375 C2.93548387 28.67741935 2.93548387 28.67741935 -2.48828125 29.2734375 C-11.05397677 29.58147081 -11.05397677 29.58147081 -14.5 26.8125 C-18.5865551 22.21512552 -20.56975566 19.37958383 -20.28125 12.984375 C-19.56934449 7.96148613 -16.9381892 4.00850116 -12.9375 0.91796875 C-8.80546624 -1.03974886 -4.42235327 -0.70520387 0 0 Z " fill="#062535" transform="translate(562,327)"/>
    <path d="M0 0 C4.61551158 2.03282459 8.13227137 5.27574523 10 10 C10.60430196 15.35238881 10.23949255 18.93068082 7.24609375 23.45703125 C4.4414637 26.92984903 1.84555748 28.67939711 -2.5859375 29.44921875 C-7.5802155 29.7570852 -11.0941923 29.52533489 -15.0625 26.3125 C-18.85419678 22.42102173 -19.85832253 19.48761339 -20.375 14.0625 C-20.2214332 8.62623516 -17.39148938 5.6023211 -13.9375 1.625 C-9.37593119 -0.89842104 -5.08792944 -0.84555847 0 0 Z " fill="#062435" transform="translate(513,327)"/>
    <path d="M0 0 C1.69672852 -0.00833862 1.69672852 -0.00833862 3.42773438 -0.0168457 C10.33865664 0.18644624 14.43445254 0.72521992 19.375 5.6875 C21.52047801 8.46141094 22.76749329 10.55247986 23.875 13.875 C18.82132167 13.94922923 13.7679616 14.00363915 8.71386719 14.03979492 C6.99506095 14.05486933 5.27629309 14.07533229 3.55761719 14.10131836 C1.08519003 14.13776165 -1.386728 14.15473958 -3.859375 14.16796875 C-4.62618591 14.18345261 -5.39299683 14.19893646 -6.18304443 14.21488953 C-9.41391107 14.21590569 -11.73687808 14.08343443 -14.61035156 12.5402832 C-16.125 10.875 -16.125 10.875 -16.625 7.9375 C-15.18472806 -0.88416564 -7.19415637 0.03161697 0 0 Z " fill="#F9FBFC" transform="translate(706.125,347.125)"/>
    <path d="M0 0 C1.28519531 -0.00386719 2.57039063 -0.00773437 3.89453125 -0.01171875 C4.56307129 -0.00543457 5.23161133 0.00084961 5.92041016 0.00732422 C7.9619433 0.02338396 10.00149708 0.00747079 12.04296875 -0.01171875 C13.32816406 -0.00785156 14.61335938 -0.00398438 15.9375 0 C17.11763672 0.00338379 18.29777344 0.00676758 19.51367188 0.01025391 C22.46875 0.3984375 22.46875 0.3984375 24.35351562 1.73583984 C26.10033488 4.34000778 25.84939511 6.35327665 25.46875 9.3984375 C24.35351562 11.06103516 24.35351562 11.06103516 22.46875 12.3984375 C19.51367188 12.78662109 19.51367188 12.78662109 15.9375 12.796875 C14.65230469 12.80074219 13.36710937 12.80460937 12.04296875 12.80859375 C11.37442871 12.80230957 10.70588867 12.79602539 10.01708984 12.78955078 C7.9755567 12.77349104 5.93600292 12.78940421 3.89453125 12.80859375 C2.60933594 12.80472656 1.32414062 12.80085938 0 12.796875 C-1.18013672 12.79349121 -2.36027344 12.79010742 -3.57617188 12.78662109 C-6.53125 12.3984375 -6.53125 12.3984375 -8.41601562 11.06103516 C-10.16283488 8.45686722 -9.91189511 6.44359835 -9.53125 3.3984375 C-7.04257839 -0.31168809 -4.22335314 0.01210956 0 0 Z " fill="#FAFCFC" transform="translate(406.53125,268.6015625)"/>
    <path d="M0 0 C1.55557617 -0.0299707 1.55557617 -0.0299707 3.14257812 -0.06054688 C10.77860287 -0.05564256 10.77860287 -0.05564256 14.78515625 2.46484375 C15.37167969 3.11582031 15.95820313 3.76679688 16.5625 4.4375 C15.95657727 9.8908046 15.95657727 9.8908046 14.35717773 12.10961914 C10.57354451 14.90912684 5.14631128 13.90410148 0.625 13.875 C-1.02145508 13.9049707 -1.02145508 13.9049707 -2.70117188 13.93554688 C-3.75755859 13.93490234 -4.81394531 13.93425781 -5.90234375 13.93359375 C-7.35048462 13.93637329 -7.35048462 13.93637329 -8.82788086 13.93920898 C-12.17790776 13.29515386 -13.36266828 12.0972401 -15.4375 9.4375 C-15.9375 6.375 -15.9375 6.375 -15.4375 3.4375 C-10.97809949 -0.89918231 -5.85752031 -0.03989642 0 0 Z " fill="#F5F9FA" transform="translate(400.4375,347.5625)"/>
    <path d="M0 0 C0.87462891 -0.00386719 1.74925781 -0.00773437 2.65039062 -0.01171875 C3.56111328 -0.00011719 4.47183594 0.01148438 5.41015625 0.0234375 C6.77043945 0.00603516 6.77043945 0.00603516 8.15820312 -0.01171875 C9.03412109 -0.00785156 9.91003906 -0.00398438 10.8125 0 C11.61034912 0.00338379 12.40819824 0.00676758 13.23022461 0.01025391 C16.03639712 0.49602574 17.4225943 1.44416208 19.47265625 3.3984375 C20.05902569 6.84335797 19.9826685 8.61139909 18.0703125 11.5625 C14.05682645 14.39909916 10.20136278 13.94150069 5.41015625 13.8359375 C4.49943359 13.84302734 3.58871094 13.85011719 2.65039062 13.85742188 C-3.99570809 13.79375254 -3.99570809 13.79375254 -6.28686523 12.09008789 C-8.35379628 9.27139763 -7.8874447 6.7593797 -7.52734375 3.3984375 C-5.32600632 0.39255695 -3.64163071 0.01546653 0 0 Z " fill="#F5F8F9" transform="translate(520.52734375,471.6015625)"/>
</svg>
